<svg width="133.6" height="136.001" viewBox="0 0 133.6 136.001" xmlns="http://www.w3.org/2000/svg"><g id="svgGroup" stroke-linecap="round" fill-rule="evenodd" font-size="9pt" stroke="#6c8ff7" stroke-width="0.5mm" fill="#ffffff" style="stroke:#6c8ff7;stroke-width:0.5mm;fill:#ffffff"><path d="M 74.8 133.2 L 32.2 7 Q 31.6 5.2 31.6 4.2 A 4.436 4.436 0 0 1 31.873 2.621 A 3.986 3.986 0 0 1 32.8 1.2 Q 34 0 36 0 A 5.562 5.562 0 0 1 37.626 0.222 Q 39.365 0.753 40.106 2.555 A 5.623 5.623 0 0 1 40.2 2.8 L 79.4 119 L 125.2 2.6 Q 126 0 129.2 0 A 4.919 4.919 0 0 1 131.019 0.329 A 4.565 4.565 0 0 1 132.3 1.1 A 3.839 3.839 0 0 1 133.166 2.118 A 3.323 3.323 0 0 1 133.6 3.8 A 7.547 7.547 0 0 1 133.203 6.191 A 8.669 8.669 0 0 1 133.2 6.2 L 83 133.2 A 4.135 4.135 0 0 1 82.266 134.677 Q 81.533 135.587 80.264 135.871 A 5.783 5.783 0 0 1 79 136 A 4.043 4.043 0 0 1 77.697 135.775 Q 77.109 135.575 76.5 135.2 A 4.694 4.694 0 0 1 75.622 134.514 A 3.361 3.361 0 0 1 74.8 133.2 Z M 1.4 134.1 A 5.699 5.699 0 0 0 1.455 134.174 Q 2.847 136 5.2 136 A 5.554 5.554 0 0 0 8.459 134.974 A 7.489 7.489 0 0 0 10 133.5 A 8.957 8.957 0 0 0 11.367 131.141 A 9.687 9.687 0 0 0 12 127.6 A 7.577 7.577 0 0 0 11.999 127.451 A 5.955 5.955 0 0 0 10.5 123.5 Q 9 121.8 6.8 121.8 Q 4.2 121.8 2.1 124.2 A 10.123 10.123 0 0 0 1.939 124.389 A 7.939 7.939 0 0 0 0 129.6 A 9.089 9.089 0 0 0 0.034 130.396 A 7.175 7.175 0 0 0 1.4 134.1 Z M 9.322 62.05 A 4.861 4.861 0 0 0 11.2 62.4 Q 14 62.4 15.9 59.9 A 9.073 9.073 0 0 0 17.264 57.359 A 10.219 10.219 0 0 0 17.8 54 A 6.362 6.362 0 0 0 16.3 49.8 A 6.164 6.164 0 0 0 15.595 49.077 A 4.17 4.17 0 0 0 12.8 48 A 5.237 5.237 0 0 0 12.092 48.048 Q 10.738 48.233 9.528 49.132 A 8.509 8.509 0 0 0 8.1 50.5 A 10.54 10.54 0 0 0 7.666 51.053 A 8.201 8.201 0 0 0 6 56 A 9.089 9.089 0 0 0 6.034 56.796 A 7.175 7.175 0 0 0 7.4 60.5 Q 8.198 61.584 9.322 62.05 Z" vector-effect="non-scaling-stroke"/></g></svg>